<svg width="52" height="64" viewBox="0 0 52 64" fill="none" xmlns="http://www.w3.org/2000/svg">
  <g clip-path="url(#clip0_11158_734)">
    <path
      d="M19.2118 62.412C18.3477 61.548 17.6408 59.336 17.6408 57.4966C17.6408 55.6573 17.1387 53.985 16.5251 53.7804C15.9115 53.5758 15.0447 51.1011 14.5989 48.281C14.0834 45.0196 12.5004 41.281 10.2494 38.0087C5.96518 31.7805 4.93936 27.0771 6.551 21.0513C10.1405 7.63059 25.1655 1.78821 36.6112 9.36258C38.8633 10.853 40.4373 12.507 40.109 13.0383C39.7778 13.5741 37.9045 12.7782 35.9023 11.251C32.7988 8.88382 31.3596 8.49775 25.6387 8.49775C19.8412 8.49775 18.4969 8.86982 15.1948 11.3885C6.78117 17.8059 5.57126 28.0138 12.1006 37.4941C14.4806 40.9497 16.0297 44.5541 16.4725 47.6661L17.1584 52.4861L23.398 52.7837L29.6376 53.0813V47.0352V40.9891H25.6387H21.6397V45.4289C21.6397 47.8708 21.1265 50.1859 20.4993 50.5735C19.661 51.0916 19.4957 48.5251 19.8755 40.8852C20.2513 33.3227 20.0288 29.7785 19.058 27.8728C17.849 25.4991 17.9921 24.8309 20.5838 20.7441C22.1568 18.2639 23.9573 15.9172 24.585 15.5292C26.1377 14.5696 28.2708 16.5129 31.2559 21.6065C33.5259 25.4801 33.6244 26.0917 32.315 28.1845C30.511 31.068 31.1477 53.3157 33.0163 52.6928C33.6319 52.4876 34.4404 50.1882 34.813 47.5829C35.2447 44.5654 36.8285 40.9036 39.1767 37.4941C43.6138 31.0517 44.6013 25.245 42.2264 19.5611C41.3365 17.4313 40.8468 15.4504 41.1381 15.1591C43.0882 13.209 46.2358 23.9677 45.251 29.2173C44.8748 31.2229 42.9318 35.2409 40.9333 38.1462C38.3583 41.8896 37.1636 44.845 36.8325 48.2905C36.5613 51.1127 35.793 53.3721 35.001 53.676C34.2272 53.9729 33.6366 55.6371 33.6366 57.5203C33.6366 59.3467 32.9296 61.548 32.0655 62.412C29.9482 64.5293 21.3291 64.5293 19.2118 62.412ZM31.4505 58.2345L31.7638 54.9854H25.702C22.3273 54.9854 19.6402 55.4286 19.6402 55.9852C19.6402 56.535 21.8897 56.9849 24.6389 56.9849C27.3882 56.9849 29.6376 57.4348 29.6376 57.9846C29.6376 58.5345 27.3882 58.9844 24.6389 58.9844C19.9522 58.9844 18.6797 59.69 20.3516 61.362C20.7429 61.7532 23.3297 61.9407 26.1001 61.7786C30.9814 61.4928 31.1469 61.3832 31.4505 58.2345ZM29.6376 37.4901C29.6376 36.407 28.5268 35.9904 25.6387 35.9904C22.7505 35.9904 21.6397 36.407 21.6397 37.4901C21.6397 38.5731 22.7505 38.9897 25.6387 38.9897C28.5268 38.9897 29.6376 38.5731 29.6376 37.4901ZM27.3882 33.3018C26.426 33.0505 24.8514 33.0505 23.8891 33.3018C22.9269 33.5532 23.7143 33.759 25.6387 33.759C27.5632 33.759 28.3505 33.5533 27.3882 33.3018ZM30.0366 28.1876C31.3625 25.6236 31.3005 25.0885 29.3125 21.9393L27.1383 18.4951L26.8309 22.744C26.6617 25.0809 26.1253 26.9928 25.6387 26.9928C25.152 26.9928 24.6155 25.0809 24.4465 22.744L24.1391 18.4951L22.0201 21.8521C20.0864 24.9155 20.0272 25.4618 21.3435 28.1004C23.3502 32.1229 27.9776 32.1693 30.0366 28.1876ZM7.7934 44.0383C8.22299 42.7495 9.59423 42.518 9.71788 43.7134C9.75897 44.112 9.25299 44.6181 8.59318 44.8381C7.93333 45.058 7.57343 44.6981 7.7934 44.0383ZM41.1772 44.0582C40.4944 42.9532 42.0714 41.7601 42.9946 42.6833C43.9451 43.6338 43.768 44.9888 42.6932 44.9888C42.1758 44.9888 41.4936 44.57 41.1772 44.0582ZM0.645271 25.9938C0.645271 25.444 1.06863 24.9941 1.58602 24.9941C2.10343 24.9941 2.80478 25.444 3.14463 25.9938C3.48444 26.5437 3.06102 26.9936 2.20388 26.9936C1.34665 26.9936 0.645271 26.5437 0.645271 25.9938ZM48.4326 25.794C49.3657 24.8609 49.8989 24.8609 50.832 25.794C51.7651 26.7271 51.4985 26.9937 49.6323 26.9937C47.7661 26.9937 47.4995 26.727 48.4326 25.794ZM7.64344 8.99758C7.64344 8.44772 8.06677 7.99787 8.58418 7.99787C9.10157 7.99787 9.80294 8.44772 10.1427 8.99758C10.4826 9.54744 10.0592 9.99733 9.20204 9.99733C8.34479 9.99733 7.64344 9.54744 7.64344 8.99758ZM40.6347 9.61987C40.6347 9.41215 41.3095 8.6824 42.1343 7.99787C43.3624 6.97858 43.6339 7.04689 43.6339 8.37533C43.6339 9.26744 42.9591 9.99733 42.1343 9.99733C41.3095 9.99733 40.6347 9.82757 40.6347 9.61987ZM24.6389 1.49958C24.6389 0.674806 25.0888 0 25.6387 0C26.1885 0 26.6384 0.674806 26.6384 1.49958C26.6384 2.32436 26.1885 2.99921 25.6387 2.99921C25.0888 2.99921 24.6389 2.32436 24.6389 1.49958Z"
      fill="#1C2024" />
  </g>
  <defs>
    <clipPath id="clip0_11158_734">
      <rect width="50.7095" height="64" fill="white" transform="translate(0.645248)" />
    </clipPath>
  </defs>
</svg>