<svg width="128" height="32" viewBox="0 0 128 32" fill="none" xmlns="http://www.w3.org/2000/svg">
  <g clip-path="url(#clip0_11022_18)">
    <path
      d="M4.04004 11.9738H9.7115V26.9072H4.04004V11.9738ZM21.025 27.2C19.8869 27.2 18.8452 27.0731 17.8999 26.8193C16.974 26.5656 16.1735 26.1166 15.4983 25.4724C14.8231 24.8282 14.3022 23.94 13.9357 22.8078C13.5692 21.6757 13.3859 20.2311 13.3859 18.4742C13.3859 15.7413 13.8682 13.6527 14.8327 12.2081C15.7973 10.744 17.3502 9.95345 19.4914 9.83633V14.1406C19.0671 14.8043 18.8548 16.2196 18.8548 18.3864C18.8548 19.6553 18.9513 20.6312 19.1442 21.3145C19.3371 21.9978 19.7037 22.4663 20.2438 22.72C20.8032 22.9737 21.5941 23.1006 22.6165 23.1006C23.0602 23.1006 23.5135 23.0616 23.9765 22.9835C24.4587 22.9055 24.9217 22.8176 25.3654 22.72V26.7022C24.6902 26.8388 23.9765 26.9559 23.2242 27.0536C22.4911 27.1512 21.7581 27.2 21.025 27.2ZM20.3016 20.114V16.8638H21.2565C21.2565 16.4148 21.2373 15.9366 21.1987 15.429C21.1794 14.9214 21.0829 14.5018 20.9093 14.1699V9.86561C22.7419 10.0218 24.0633 10.6952 24.8735 11.886C25.6837 13.0572 26.0888 14.7165 26.0888 16.8638C26.0888 17.4103 26.0696 17.9765 26.031 18.5621C25.9924 19.1282 25.9249 19.6455 25.8284 20.114H20.3016ZM32.5021 17.6837H27.12C27.1971 16.1805 27.4575 14.9214 27.9012 13.9064C28.3642 12.8913 28.9622 12.091 29.6953 11.5053C30.4476 10.9002 31.2771 10.4707 32.1838 10.217C33.1097 9.96322 34.0646 9.83633 35.0484 9.83633C35.7235 9.83633 36.3409 9.88513 36.9003 9.98274C37.4597 10.0803 38.0384 10.2267 38.6365 10.422V17.0102H35.6561L35.0774 13.965C34.2864 13.965 33.6691 14.2383 33.2255 14.7848C32.801 15.3314 32.5599 16.2976 32.5021 17.6837ZM27.091 19.177H32.5021C32.5792 20.5825 32.8878 21.5682 33.428 22.1344C33.9874 22.7005 34.7205 22.9835 35.6271 22.9835C36.5531 22.964 37.5948 22.8078 38.7522 22.515V26.6729C38.1542 26.8486 37.4501 26.9755 36.6399 27.0536C35.8297 27.1512 35.0869 27.2 34.4118 27.2C33.0808 27.2 31.875 26.9755 30.7948 26.5265C29.7145 26.058 28.8464 25.2382 28.1906 24.0669C27.5346 22.8957 27.1682 21.2657 27.091 19.177ZM45.7638 26.9072H40.5553V5.5613L45.7638 4.79999V26.9072ZM47.2106 13.965V10.1584C47.8472 9.94369 48.4644 9.83633 49.0625 9.83633C50.3936 9.83633 51.4931 10.256 52.3612 11.0954C53.2486 11.9348 53.6923 13.1939 53.6923 14.8727V26.9072H48.4838V15.7218C48.4838 14.6677 48.0593 14.0821 47.2106 13.965ZM69.9918 13.3793L67.6191 18.5035L66.4038 17.9472C65.2656 17.4201 64.3878 16.7174 63.7706 15.8389C63.1533 14.9605 62.8446 13.6819 62.8446 12.0031C62.8446 9.85585 63.3944 8.25515 64.494 7.20104C65.6128 6.1274 67.4551 5.58081 70.0208 5.5613C71.0817 5.5613 72.0463 5.6101 72.9144 5.7077C73.7825 5.80531 74.4769 5.91267 74.9978 6.02979C75.5186 6.1274 75.779 6.1762 75.779 6.1762L75.2003 10.8904C75.2003 10.8904 74.9592 10.8612 74.4769 10.8026C74.0139 10.744 73.4352 10.6952 72.7408 10.6562C72.0463 10.5976 71.3711 10.5684 70.7152 10.5684C70.0208 10.5684 69.4903 10.6757 69.1238 10.8904C68.7765 11.0857 68.6029 11.4663 68.6029 12.0324C68.6029 12.3447 68.7282 12.5985 68.9791 12.7937C69.2298 12.9889 69.5674 13.1842 69.9918 13.3793ZM77.1006 14.0235V10.0706H79.2708V6.38117H84.4793V10.0706H87.6333V14.0235H77.1006ZM79.2708 15.224H84.4793V21.3145C84.4793 21.861 84.6143 22.2613 84.8844 22.515C85.1738 22.7688 85.6271 22.8957 86.2444 22.8957C86.553 22.8957 86.8231 22.8859 87.0546 22.8664C87.2861 22.8273 87.479 22.7883 87.6333 22.7493V26.6437C87.1703 26.7998 86.6784 26.9267 86.1576 27.0243C85.656 27.1414 85.1448 27.2 84.624 27.2C82.8492 27.2 81.5085 26.8193 80.6019 26.058C79.7144 25.2772 79.2708 23.8912 79.2708 21.9001V15.224ZM96.6489 27.1707V22.8664C97.3433 22.3979 97.6906 20.9533 97.6906 18.5328C97.6906 16.0537 97.3433 14.5993 96.6489 14.1699V9.86561C98.9638 9.96322 100.613 10.6952 101.597 12.0617C102.581 13.4086 103.072 15.5559 103.072 18.5035C103.072 21.4511 102.581 23.6082 101.597 24.9746C100.613 26.3216 98.9638 27.0536 96.6489 27.1707ZM95.2021 22.8957V27.1707C92.8872 27.0536 91.2378 26.3216 90.254 24.9746C89.2697 23.6082 88.7778 21.4511 88.7778 18.5035C88.7778 15.5559 89.2697 13.4086 90.254 12.0617C91.2378 10.7148 92.8872 9.98273 95.2021 9.86561V14.1406C94.835 14.3749 94.5655 14.8434 94.3919 15.5461C94.2373 16.2489 94.1604 17.2444 94.1604 18.5328C94.1604 21.0119 94.5076 22.4662 95.2021 22.8957ZM111.121 15.1362V10.5391C112.009 9.91441 113.128 9.72897 114.478 9.98274V14.9019C113.938 14.9019 113.378 14.9214 112.8 14.9605C112.241 14.9996 111.681 15.0581 111.121 15.1362ZM110.022 26.9072H104.813V10.0706H109.241L110.022 12.3252V26.9072ZM123.121 27.2C121.982 27.2 120.941 27.0731 119.996 26.8193C119.07 26.5656 118.269 26.1166 117.594 25.4724C116.919 24.8282 116.398 23.94 116.031 22.8078C115.664 21.6757 115.482 20.2311 115.482 18.4742C115.482 15.7413 115.964 13.6527 116.929 12.2081C117.892 10.744 119.446 9.95345 121.587 9.83633V14.1406C121.162 14.8043 120.951 16.2196 120.951 18.3864C120.951 19.6553 121.046 20.6312 121.24 21.3145C121.433 21.9978 121.799 22.4663 122.34 22.72C122.898 22.9737 123.69 23.1006 124.712 23.1006C125.155 23.1006 125.609 23.0616 126.072 22.9835C126.554 22.9055 127.017 22.8176 127.461 22.72V26.7022C126.786 26.8388 126.072 26.9559 125.32 27.0536C124.587 27.1512 123.853 27.2 123.121 27.2ZM122.397 20.114V16.8638H123.352C123.352 16.4148 123.332 15.9366 123.294 15.429C123.275 14.9214 123.179 14.5018 123.005 14.1699V9.86561C124.837 10.0218 126.159 10.6952 126.969 11.886C127.78 13.0572 128.185 14.7165 128.185 16.8638C128.185 17.4103 128.165 17.9765 128.127 18.5621C128.088 19.1282 128.02 19.6455 127.924 20.114H122.397Z"
      fill="#60646C" />
    <path d="M-0.184616 5.82483V10.5098H13.5311L14.3991 5.82483H-0.184616Z" fill="#5B5BD6" />
    <path
      d="M71.3518 13.965L68.9501 19.1477L69.471 19.3819C69.9146 19.5771 70.2233 19.7724 70.3969 19.9676C70.5706 20.1627 70.6574 20.4263 70.6574 20.7582C70.6574 21.2461 70.4741 21.5975 70.1076 21.8123C69.741 22.027 69.1912 22.1344 68.4582 22.1344C67.5129 22.1344 66.6448 22.0953 65.854 22.0172C65.063 21.9392 64.4264 21.861 63.9442 21.783L63.2497 21.6659L62.671 26.3801C63.5197 26.5949 64.494 26.7803 65.5936 26.9365C66.6931 27.1121 67.8795 27.2 69.1527 27.2C71.7183 27.1805 73.5605 26.5851 74.6795 25.4138C75.7983 24.2426 76.3578 22.5736 76.3578 20.4068C76.3578 18.8061 76.0587 17.5763 75.4607 16.7174C74.8627 15.8389 73.9078 15.1069 72.5961 14.5213L71.3518 13.965Z"
      fill="#5B5BD6" />
  </g>
  <defs>
    <clipPath id="clip0_11022_18">
      <rect width="128" height="32" fill="white" />
    </clipPath>
  </defs>
</svg>