<svg width="20" height="21" viewBox="0 0 20 21" fill="none" xmlns="http://www.w3.org/2000/svg">
  <path
    d="M10.75 5.08337C10.75 4.66916 10.4142 4.33337 10 4.33337C9.58579 4.33337 9.25 4.66916 9.25 5.08337V9.58337H4.75C4.33579 9.58337 4 9.91916 4 10.3334C4 10.7476 4.33579 11.0834 4.75 11.0834L9.25 11.0834V15.5834C9.25 15.9976 9.58579 16.3334 10 16.3334C10.4142 16.3334 10.75 15.9976 10.75 15.5834V11.0834L15.25 11.0834C15.6642 11.0834 16 10.7476 16 10.3334C16 9.91916 15.6642 9.58337 15.25 9.58337H10.75V5.08337Z"
    fill="#60646C" />
</svg>